<mxfile host="app.diagrams.net" agent="Mozilla/5.0 (Windows NT 10.0; Win64; x64) AppleWebKit/537.36 (KHTML, like Gecko) Chrome/131.0.0.0 Safari/537.36" version="25.0.3" pages="2">
  <diagram name="Домашнее работа 1" id="eaRDpn1C9JXg0T6CSUOb">
    <mxGraphModel dx="1500" dy="746" grid="1" gridSize="10" guides="1" tooltips="1" connect="1" arrows="1" fold="1" page="1" pageScale="1" pageWidth="827" pageHeight="1169" math="0" shadow="0">
      <root>
        <mxCell id="0" />
        <mxCell id="1" parent="0" />
        <mxCell id="xDM_BPW0p7tAtSdx9FqP-1" style="edgeStyle=orthogonalEdgeStyle;rounded=1;orthogonalLoop=1;jettySize=auto;html=1;" edge="1" parent="1" source="xDM_BPW0p7tAtSdx9FqP-4" target="xDM_BPW0p7tAtSdx9FqP-15">
          <mxGeometry relative="1" as="geometry" />
        </mxCell>
        <mxCell id="xDM_BPW0p7tAtSdx9FqP-2" style="edgeStyle=orthogonalEdgeStyle;rounded=0;orthogonalLoop=1;jettySize=auto;html=1;curved=0;" edge="1" parent="1" source="xDM_BPW0p7tAtSdx9FqP-4" target="xDM_BPW0p7tAtSdx9FqP-16">
          <mxGeometry relative="1" as="geometry" />
        </mxCell>
        <mxCell id="xDM_BPW0p7tAtSdx9FqP-3" style="edgeStyle=orthogonalEdgeStyle;rounded=0;orthogonalLoop=1;jettySize=auto;html=1;entryX=0.5;entryY=1;entryDx=0;entryDy=0;curved=0;" edge="1" parent="1" source="xDM_BPW0p7tAtSdx9FqP-4" target="xDM_BPW0p7tAtSdx9FqP-17">
          <mxGeometry relative="1" as="geometry" />
        </mxCell>
        <mxCell id="xDM_BPW0p7tAtSdx9FqP-4" value="Читатель&lt;div&gt;&lt;br&gt;&lt;/div&gt;" style="shape=umlActor;verticalLabelPosition=bottom;verticalAlign=top;html=1;rounded=1;" vertex="1" parent="1">
          <mxGeometry x="1235" y="200" width="30" height="60" as="geometry" />
        </mxCell>
        <mxCell id="xDM_BPW0p7tAtSdx9FqP-5" style="edgeStyle=orthogonalEdgeStyle;rounded=1;orthogonalLoop=1;jettySize=auto;html=1;" edge="1" parent="1" source="xDM_BPW0p7tAtSdx9FqP-9" target="xDM_BPW0p7tAtSdx9FqP-22">
          <mxGeometry relative="1" as="geometry" />
        </mxCell>
        <mxCell id="xDM_BPW0p7tAtSdx9FqP-6" style="edgeStyle=orthogonalEdgeStyle;rounded=1;orthogonalLoop=1;jettySize=auto;html=1;entryX=0.5;entryY=1;entryDx=0;entryDy=0;" edge="1" parent="1" source="xDM_BPW0p7tAtSdx9FqP-9" target="xDM_BPW0p7tAtSdx9FqP-21">
          <mxGeometry relative="1" as="geometry" />
        </mxCell>
        <mxCell id="xDM_BPW0p7tAtSdx9FqP-7" style="edgeStyle=orthogonalEdgeStyle;rounded=1;orthogonalLoop=1;jettySize=auto;html=1;entryX=0.5;entryY=0;entryDx=0;entryDy=0;" edge="1" parent="1" source="xDM_BPW0p7tAtSdx9FqP-9" target="xDM_BPW0p7tAtSdx9FqP-23">
          <mxGeometry relative="1" as="geometry" />
        </mxCell>
        <mxCell id="xDM_BPW0p7tAtSdx9FqP-8" style="edgeStyle=orthogonalEdgeStyle;rounded=1;orthogonalLoop=1;jettySize=auto;html=1;entryX=0.5;entryY=1;entryDx=0;entryDy=0;" edge="1" parent="1" source="xDM_BPW0p7tAtSdx9FqP-9" target="xDM_BPW0p7tAtSdx9FqP-15">
          <mxGeometry relative="1" as="geometry" />
        </mxCell>
        <mxCell id="xDM_BPW0p7tAtSdx9FqP-9" value="&lt;div&gt;Библиотекарь&lt;/div&gt;" style="shape=umlActor;verticalLabelPosition=bottom;verticalAlign=top;html=1;rounded=1;" vertex="1" parent="1">
          <mxGeometry x="1430" y="500" width="30" height="60" as="geometry" />
        </mxCell>
        <mxCell id="xDM_BPW0p7tAtSdx9FqP-10" style="edgeStyle=orthogonalEdgeStyle;rounded=1;orthogonalLoop=1;jettySize=auto;html=1;entryX=0.5;entryY=0;entryDx=0;entryDy=0;" edge="1" parent="1" source="xDM_BPW0p7tAtSdx9FqP-14" target="xDM_BPW0p7tAtSdx9FqP-28">
          <mxGeometry relative="1" as="geometry" />
        </mxCell>
        <mxCell id="xDM_BPW0p7tAtSdx9FqP-11" style="edgeStyle=orthogonalEdgeStyle;rounded=1;orthogonalLoop=1;jettySize=auto;html=1;entryX=1;entryY=0.5;entryDx=0;entryDy=0;" edge="1" parent="1" source="xDM_BPW0p7tAtSdx9FqP-14" target="xDM_BPW0p7tAtSdx9FqP-29">
          <mxGeometry relative="1" as="geometry" />
        </mxCell>
        <mxCell id="xDM_BPW0p7tAtSdx9FqP-12" style="edgeStyle=orthogonalEdgeStyle;rounded=1;orthogonalLoop=1;jettySize=auto;html=1;entryX=0.5;entryY=1;entryDx=0;entryDy=0;" edge="1" parent="1" source="xDM_BPW0p7tAtSdx9FqP-14" target="xDM_BPW0p7tAtSdx9FqP-27">
          <mxGeometry relative="1" as="geometry" />
        </mxCell>
        <mxCell id="xDM_BPW0p7tAtSdx9FqP-13" style="edgeStyle=orthogonalEdgeStyle;rounded=1;orthogonalLoop=1;jettySize=auto;html=1;entryX=0;entryY=0.5;entryDx=0;entryDy=0;" edge="1" parent="1" source="xDM_BPW0p7tAtSdx9FqP-14" target="xDM_BPW0p7tAtSdx9FqP-15">
          <mxGeometry relative="1" as="geometry" />
        </mxCell>
        <mxCell id="xDM_BPW0p7tAtSdx9FqP-14" value="&lt;div&gt;Админстратор&lt;/div&gt;" style="shape=umlActor;verticalLabelPosition=bottom;verticalAlign=top;html=1;rounded=1;" vertex="1" parent="1">
          <mxGeometry x="1020" y="420" width="30" height="60" as="geometry" />
        </mxCell>
        <mxCell id="xDM_BPW0p7tAtSdx9FqP-15" value="Регистрация в системе" style="ellipse;whiteSpace=wrap;html=1;rounded=1;" vertex="1" parent="1">
          <mxGeometry x="1180" y="340" width="140" height="70" as="geometry" />
        </mxCell>
        <mxCell id="xDM_BPW0p7tAtSdx9FqP-16" value="Просмотр и поиск&lt;div&gt;книг&lt;/div&gt;" style="ellipse;whiteSpace=wrap;html=1;rounded=1;" vertex="1" parent="1">
          <mxGeometry x="1080" y="70" width="140" height="70" as="geometry" />
        </mxCell>
        <mxCell id="xDM_BPW0p7tAtSdx9FqP-17" value="Бронирование книги" style="ellipse;whiteSpace=wrap;html=1;rounded=1;" vertex="1" parent="1">
          <mxGeometry x="1270" y="60" width="140" height="70" as="geometry" />
        </mxCell>
        <mxCell id="xDM_BPW0p7tAtSdx9FqP-18" style="edgeStyle=orthogonalEdgeStyle;rounded=0;orthogonalLoop=1;jettySize=auto;html=1;entryX=1;entryY=0.5;entryDx=0;entryDy=0;dashed=1;curved=1;" edge="1" parent="1" source="xDM_BPW0p7tAtSdx9FqP-20" target="xDM_BPW0p7tAtSdx9FqP-17">
          <mxGeometry relative="1" as="geometry" />
        </mxCell>
        <mxCell id="xDM_BPW0p7tAtSdx9FqP-19" value="extend" style="edgeLabel;html=1;align=center;verticalAlign=middle;resizable=0;points=[];rounded=1;" vertex="1" connectable="0" parent="xDM_BPW0p7tAtSdx9FqP-18">
          <mxGeometry x="-0.3789" y="-2" relative="1" as="geometry">
            <mxPoint x="9" y="17" as="offset" />
          </mxGeometry>
        </mxCell>
        <mxCell id="xDM_BPW0p7tAtSdx9FqP-20" value="Отмена бронирования" style="ellipse;whiteSpace=wrap;html=1;rounded=1;" vertex="1" parent="1">
          <mxGeometry x="1510" width="140" height="70" as="geometry" />
        </mxCell>
        <mxCell id="xDM_BPW0p7tAtSdx9FqP-21" value="Выдача/возврат&amp;nbsp;&lt;div&gt;книг&lt;/div&gt;" style="ellipse;whiteSpace=wrap;html=1;rounded=1;" vertex="1" parent="1">
          <mxGeometry x="1514" y="415" width="140" height="70" as="geometry" />
        </mxCell>
        <mxCell id="xDM_BPW0p7tAtSdx9FqP-22" value="Управление книгами" style="ellipse;whiteSpace=wrap;html=1;rounded=1;" vertex="1" parent="1">
          <mxGeometry x="1320" y="680" width="140" height="70" as="geometry" />
        </mxCell>
        <mxCell id="xDM_BPW0p7tAtSdx9FqP-23" value="Список бронировании" style="ellipse;whiteSpace=wrap;html=1;rounded=1;" vertex="1" parent="1">
          <mxGeometry x="1514" y="580" width="140" height="70" as="geometry" />
        </mxCell>
        <mxCell id="xDM_BPW0p7tAtSdx9FqP-24" style="edgeStyle=orthogonalEdgeStyle;rounded=0;orthogonalLoop=1;jettySize=auto;html=1;entryX=0;entryY=0.5;entryDx=0;entryDy=0;curved=1;dashed=1;" edge="1" parent="1" source="xDM_BPW0p7tAtSdx9FqP-26" target="xDM_BPW0p7tAtSdx9FqP-22">
          <mxGeometry relative="1" as="geometry" />
        </mxCell>
        <mxCell id="xDM_BPW0p7tAtSdx9FqP-25" value="include" style="edgeLabel;html=1;align=center;verticalAlign=middle;resizable=0;points=[];rounded=1;" vertex="1" connectable="0" parent="xDM_BPW0p7tAtSdx9FqP-24">
          <mxGeometry x="-0.3253" y="-1" relative="1" as="geometry">
            <mxPoint as="offset" />
          </mxGeometry>
        </mxCell>
        <mxCell id="xDM_BPW0p7tAtSdx9FqP-26" value="Учет выданных и возвращенных книг&amp;nbsp;" style="ellipse;whiteSpace=wrap;html=1;rounded=1;" vertex="1" parent="1">
          <mxGeometry x="1220" y="570" width="140" height="70" as="geometry" />
        </mxCell>
        <mxCell id="xDM_BPW0p7tAtSdx9FqP-27" value="Управление учетными записями пользователей и библиотекарей&amp;nbsp;" style="ellipse;whiteSpace=wrap;html=1;rounded=1;" vertex="1" parent="1">
          <mxGeometry x="957.5" y="280" width="155" height="70" as="geometry" />
        </mxCell>
        <mxCell id="xDM_BPW0p7tAtSdx9FqP-28" value="Управление филиалом библиотеки" style="ellipse;whiteSpace=wrap;html=1;rounded=1;" vertex="1" parent="1">
          <mxGeometry x="1000" y="550" width="140" height="70" as="geometry" />
        </mxCell>
        <mxCell id="xDM_BPW0p7tAtSdx9FqP-29" value="Просмотр&amp;nbsp;&lt;div&gt;аналитики&lt;/div&gt;" style="ellipse;whiteSpace=wrap;html=1;rounded=1;" vertex="1" parent="1">
          <mxGeometry x="827" y="460" width="140" height="70" as="geometry" />
        </mxCell>
        <mxCell id="xDM_BPW0p7tAtSdx9FqP-30" style="edgeStyle=orthogonalEdgeStyle;rounded=0;orthogonalLoop=1;jettySize=auto;html=1;entryX=0;entryY=0.5;entryDx=0;entryDy=0;curved=1;dashed=1;" edge="1" parent="1" source="xDM_BPW0p7tAtSdx9FqP-32" target="xDM_BPW0p7tAtSdx9FqP-16">
          <mxGeometry relative="1" as="geometry" />
        </mxCell>
        <mxCell id="xDM_BPW0p7tAtSdx9FqP-31" value="extend" style="edgeLabel;html=1;align=center;verticalAlign=middle;resizable=0;points=[];rounded=1;" vertex="1" connectable="0" parent="xDM_BPW0p7tAtSdx9FqP-30">
          <mxGeometry x="-0.0003" y="1" relative="1" as="geometry">
            <mxPoint as="offset" />
          </mxGeometry>
        </mxCell>
        <mxCell id="xDM_BPW0p7tAtSdx9FqP-32" value="Доступные книги" style="ellipse;whiteSpace=wrap;html=1;rounded=1;" vertex="1" parent="1">
          <mxGeometry x="850" y="10" width="140" height="70" as="geometry" />
        </mxCell>
        <mxCell id="xDM_BPW0p7tAtSdx9FqP-33" style="edgeStyle=orthogonalEdgeStyle;rounded=0;orthogonalLoop=1;jettySize=auto;html=1;entryX=1;entryY=0.5;entryDx=0;entryDy=0;curved=1;dashed=1;" edge="1" parent="1" source="xDM_BPW0p7tAtSdx9FqP-35" target="xDM_BPW0p7tAtSdx9FqP-22">
          <mxGeometry relative="1" as="geometry" />
        </mxCell>
        <mxCell id="xDM_BPW0p7tAtSdx9FqP-34" value="include" style="edgeLabel;html=1;align=center;verticalAlign=middle;resizable=0;points=[];rounded=1;" vertex="1" connectable="0" parent="xDM_BPW0p7tAtSdx9FqP-33">
          <mxGeometry x="-0.2049" relative="1" as="geometry">
            <mxPoint as="offset" />
          </mxGeometry>
        </mxCell>
        <mxCell id="xDM_BPW0p7tAtSdx9FqP-35" value="Управление каталогом" style="ellipse;whiteSpace=wrap;html=1;rounded=1;" vertex="1" parent="1">
          <mxGeometry x="1514" y="720" width="140" height="70" as="geometry" />
        </mxCell>
        <mxCell id="xDM_BPW0p7tAtSdx9FqP-36" value="Удалить" style="ellipse;whiteSpace=wrap;html=1;rounded=1;" vertex="1" parent="1">
          <mxGeometry x="825" y="230" width="140" height="70" as="geometry" />
        </mxCell>
        <mxCell id="xDM_BPW0p7tAtSdx9FqP-37" style="edgeStyle=orthogonalEdgeStyle;rounded=1;orthogonalLoop=1;jettySize=auto;html=1;dashed=1;exitX=0.495;exitY=1.001;exitDx=0;exitDy=0;exitPerimeter=0;" edge="1" parent="1" source="xDM_BPW0p7tAtSdx9FqP-36">
          <mxGeometry relative="1" as="geometry">
            <mxPoint x="950" y="320" as="targetPoint" />
          </mxGeometry>
        </mxCell>
        <mxCell id="xDM_BPW0p7tAtSdx9FqP-38" value="include" style="edgeLabel;html=1;align=center;verticalAlign=middle;resizable=0;points=[];rounded=1;" vertex="1" connectable="0" parent="xDM_BPW0p7tAtSdx9FqP-37">
          <mxGeometry x="-0.2935" y="-1" relative="1" as="geometry">
            <mxPoint x="3" y="-1" as="offset" />
          </mxGeometry>
        </mxCell>
        <mxCell id="xDM_BPW0p7tAtSdx9FqP-39" style="edgeStyle=orthogonalEdgeStyle;rounded=1;orthogonalLoop=1;jettySize=auto;html=1;entryX=0.5;entryY=0;entryDx=0;entryDy=0;dashed=1;" edge="1" parent="1" source="xDM_BPW0p7tAtSdx9FqP-41" target="xDM_BPW0p7tAtSdx9FqP-27">
          <mxGeometry relative="1" as="geometry">
            <mxPoint x="1035" y="150" as="targetPoint" />
          </mxGeometry>
        </mxCell>
        <mxCell id="xDM_BPW0p7tAtSdx9FqP-40" value="include" style="edgeLabel;html=1;align=center;verticalAlign=middle;resizable=0;points=[];rounded=1;" vertex="1" connectable="0" parent="xDM_BPW0p7tAtSdx9FqP-39">
          <mxGeometry x="0.1029" y="-1" relative="1" as="geometry">
            <mxPoint as="offset" />
          </mxGeometry>
        </mxCell>
        <mxCell id="xDM_BPW0p7tAtSdx9FqP-41" value="Добавить" style="ellipse;whiteSpace=wrap;html=1;rounded=1;" vertex="1" parent="1">
          <mxGeometry x="965" y="180" width="140" height="70" as="geometry" />
        </mxCell>
      </root>
    </mxGraphModel>
  </diagram>
  <diagram id="acj7QZBMgNqCMmuAfz-x" name="Домашнее задание 2">
    <mxGraphModel dx="1050" dy="522" grid="1" gridSize="10" guides="1" tooltips="1" connect="1" arrows="1" fold="1" page="1" pageScale="1" pageWidth="827" pageHeight="1169" math="0" shadow="0">
      <root>
        <mxCell id="0" />
        <mxCell id="1" parent="0" />
        <mxCell id="zFqMoDSng2m44C8YZfHr-1" value="" style="ellipse;html=1;shape=startState;fillColor=#000000;strokeColor=#ff0000;rounded=1;" vertex="1" parent="1">
          <mxGeometry x="230" y="50" width="30" height="30" as="geometry" />
        </mxCell>
        <mxCell id="zFqMoDSng2m44C8YZfHr-2" value="" style="edgeStyle=orthogonalEdgeStyle;html=1;verticalAlign=bottom;endArrow=open;endSize=8;strokeColor=#ff0000;rounded=1;" edge="1" parent="1" source="zFqMoDSng2m44C8YZfHr-1">
          <mxGeometry relative="1" as="geometry">
            <mxPoint x="245" y="140" as="targetPoint" />
          </mxGeometry>
        </mxCell>
        <mxCell id="zFqMoDSng2m44C8YZfHr-3" value="Система ожидает&amp;nbsp;&lt;div&gt;действия пользователя&lt;/div&gt;" style="edgeLabel;html=1;align=center;verticalAlign=middle;resizable=0;points=[];rounded=1;" vertex="1" connectable="0" parent="zFqMoDSng2m44C8YZfHr-2">
          <mxGeometry x="-0.0943" y="2" relative="1" as="geometry">
            <mxPoint as="offset" />
          </mxGeometry>
        </mxCell>
        <mxCell id="zFqMoDSng2m44C8YZfHr-4" style="edgeStyle=orthogonalEdgeStyle;rounded=1;orthogonalLoop=1;jettySize=auto;html=1;exitX=1;exitY=0.5;exitDx=0;exitDy=0;entryX=0;entryY=0.5;entryDx=0;entryDy=0;" edge="1" parent="1" source="zFqMoDSng2m44C8YZfHr-6" target="zFqMoDSng2m44C8YZfHr-9">
          <mxGeometry relative="1" as="geometry" />
        </mxCell>
        <mxCell id="zFqMoDSng2m44C8YZfHr-5" value="Ожидание&amp;nbsp;&lt;div&gt;внесения денег&lt;/div&gt;" style="edgeLabel;html=1;align=center;verticalAlign=middle;resizable=0;points=[];rounded=1;" vertex="1" connectable="0" parent="zFqMoDSng2m44C8YZfHr-4">
          <mxGeometry x="-0.13" y="1" relative="1" as="geometry">
            <mxPoint as="offset" />
          </mxGeometry>
        </mxCell>
        <mxCell id="zFqMoDSng2m44C8YZfHr-6" value="Idle" style="html=1;whiteSpace=wrap;rounded=1;" vertex="1" parent="1">
          <mxGeometry x="190" y="140" width="110" height="50" as="geometry" />
        </mxCell>
        <mxCell id="zFqMoDSng2m44C8YZfHr-7" style="edgeStyle=orthogonalEdgeStyle;rounded=1;orthogonalLoop=1;jettySize=auto;html=1;entryX=0.5;entryY=0;entryDx=0;entryDy=0;" edge="1" parent="1" source="zFqMoDSng2m44C8YZfHr-9" target="zFqMoDSng2m44C8YZfHr-15">
          <mxGeometry relative="1" as="geometry" />
        </mxCell>
        <mxCell id="zFqMoDSng2m44C8YZfHr-8" value="Деньги&amp;nbsp;&lt;div&gt;получены&lt;/div&gt;" style="edgeLabel;html=1;align=center;verticalAlign=middle;resizable=0;points=[];rounded=1;" vertex="1" connectable="0" parent="zFqMoDSng2m44C8YZfHr-7">
          <mxGeometry x="-0.265" y="-2" relative="1" as="geometry">
            <mxPoint as="offset" />
          </mxGeometry>
        </mxCell>
        <mxCell id="zFqMoDSng2m44C8YZfHr-9" value="WaitingForMoney" style="html=1;whiteSpace=wrap;rounded=1;" vertex="1" parent="1">
          <mxGeometry x="410" y="140" width="110" height="50" as="geometry" />
        </mxCell>
        <mxCell id="zFqMoDSng2m44C8YZfHr-10" style="edgeStyle=orthogonalEdgeStyle;rounded=1;orthogonalLoop=1;jettySize=auto;html=1;entryX=1;entryY=0.5;entryDx=0;entryDy=0;strokeColor=#ff0000;" edge="1" parent="1" source="zFqMoDSng2m44C8YZfHr-11" target="zFqMoDSng2m44C8YZfHr-18">
          <mxGeometry relative="1" as="geometry" />
        </mxCell>
        <mxCell id="zFqMoDSng2m44C8YZfHr-11" value="TransactionCanceled" style="html=1;whiteSpace=wrap;rounded=1;" vertex="1" parent="1">
          <mxGeometry x="190" y="270" width="120" height="50" as="geometry" />
        </mxCell>
        <mxCell id="zFqMoDSng2m44C8YZfHr-12" style="edgeStyle=orthogonalEdgeStyle;rounded=1;orthogonalLoop=1;jettySize=auto;html=1;exitX=1;exitY=0.5;exitDx=0;exitDy=0;entryX=0;entryY=0.5;entryDx=0;entryDy=0;" edge="1" parent="1" source="zFqMoDSng2m44C8YZfHr-15" target="zFqMoDSng2m44C8YZfHr-17">
          <mxGeometry relative="1" as="geometry" />
        </mxCell>
        <mxCell id="zFqMoDSng2m44C8YZfHr-13" style="edgeStyle=orthogonalEdgeStyle;rounded=1;orthogonalLoop=1;jettySize=auto;html=1;entryX=1;entryY=0.5;entryDx=0;entryDy=0;" edge="1" parent="1" source="zFqMoDSng2m44C8YZfHr-15" target="zFqMoDSng2m44C8YZfHr-11">
          <mxGeometry relative="1" as="geometry" />
        </mxCell>
        <mxCell id="zFqMoDSng2m44C8YZfHr-14" value="Транзакция&amp;nbsp;&lt;div&gt;отменена&lt;/div&gt;" style="edgeLabel;html=1;align=center;verticalAlign=middle;resizable=0;points=[];rounded=1;" vertex="1" connectable="0" parent="zFqMoDSng2m44C8YZfHr-13">
          <mxGeometry x="0.104" y="-1" relative="1" as="geometry">
            <mxPoint as="offset" />
          </mxGeometry>
        </mxCell>
        <mxCell id="zFqMoDSng2m44C8YZfHr-15" value="MoneyReceived" style="html=1;whiteSpace=wrap;rounded=1;" vertex="1" parent="1">
          <mxGeometry x="410" y="270" width="110" height="50" as="geometry" />
        </mxCell>
        <mxCell id="zFqMoDSng2m44C8YZfHr-16" style="edgeStyle=orthogonalEdgeStyle;rounded=1;orthogonalLoop=1;jettySize=auto;html=1;entryX=0.5;entryY=1;entryDx=0;entryDy=0;strokeColor=#FF0000;" edge="1" parent="1" source="zFqMoDSng2m44C8YZfHr-17" target="zFqMoDSng2m44C8YZfHr-19">
          <mxGeometry relative="1" as="geometry" />
        </mxCell>
        <mxCell id="zFqMoDSng2m44C8YZfHr-17" value="TicketDispened" style="html=1;whiteSpace=wrap;rounded=1;" vertex="1" parent="1">
          <mxGeometry x="610" y="270" width="110" height="50" as="geometry" />
        </mxCell>
        <mxCell id="zFqMoDSng2m44C8YZfHr-18" value="" style="ellipse;html=1;shape=endState;fillColor=#000000;strokeColor=#ff0000;rounded=1;" vertex="1" parent="1">
          <mxGeometry x="100" y="280" width="30" height="30" as="geometry" />
        </mxCell>
        <mxCell id="zFqMoDSng2m44C8YZfHr-19" value="" style="ellipse;html=1;shape=endState;fillColor=#000000;strokeColor=#ff0000;rounded=1;" vertex="1" parent="1">
          <mxGeometry x="650" y="170" width="30" height="30" as="geometry" />
        </mxCell>
        <mxCell id="zFqMoDSng2m44C8YZfHr-20" value="Билет&amp;nbsp;&lt;div&gt;выдан&lt;/div&gt;" style="text;html=1;align=center;verticalAlign=middle;resizable=0;points=[];autosize=1;strokeColor=none;fillColor=none;" vertex="1" parent="1">
          <mxGeometry x="530" y="275" width="60" height="40" as="geometry" />
        </mxCell>
      </root>
    </mxGraphModel>
  </diagram>
</mxfile>
